<svg id="Calque_1" data-name="Calque 1" xmlns="http://www.w3.org/2000/svg" viewBox="0 0 182 256"><defs><style>.cls-1{fill:#666;}.cls-2{fill:#e1e1e1;}.cls-3{fill:#aaa;}.cls-4{fill:#00f40c;}</style></defs><polygon class="cls-1" points="131.57 0 0 0 0 256 182 256 182 50.43 131.57 0"/><path class="cls-2" d="M168.42.25" transform="translate(-36.84 -0.25)"/><polygon class="cls-3" points="182 50.43 131.57 50.43 131.57 0 182 50.43"/><path class="cls-4" d="M121.74,136.31a7.45,7.45,0,0,1-2.6,2.67,9,9,0,0,1-4,1.29v2.92h-2.34v-2.92a9.5,9.5,0,0,1-5.47-2.12,6,6,0,0,1-2.09-4.75h4.4a3.89,3.89,0,0,0,.9,2.32,3.69,3.69,0,0,0,2.26,1.17V129a29.3,29.3,0,0,1-3.92-1.24,6.23,6.23,0,0,1-2.57-2,6,6,0,0,1-1.07-3.75,6.52,6.52,0,0,1,2.09-5,9,9,0,0,1,5.47-2.28v-2.92h2.34v2.92a8.62,8.62,0,0,1,5.1,2,6.78,6.78,0,0,1,2.18,4.69H118a3.5,3.5,0,0,0-.86-2,3.84,3.84,0,0,0-2-1.21V126a26.13,26.13,0,0,1,3.93,1.2,6.15,6.15,0,0,1,2.55,2,5.93,5.93,0,0,1,1.05,3.73A6.9,6.9,0,0,1,121.74,136.31Zm-11.49-12.24a6.33,6.33,0,0,0,2.5,1.33v-7.27a3.93,3.93,0,0,0-2.46,1.12,3.44,3.44,0,0,0-.92,2.52A3,3,0,0,0,110.25,124.07Zm7.33,11.54a3.62,3.62,0,0,0,.9-2.47,2.93,2.93,0,0,0-.88-2.25,6.64,6.64,0,0,0-2.51-1.31v7.31A4.05,4.05,0,0,0,117.58,135.61Z" transform="translate(-36.84 -0.25)"/><path class="cls-4" d="M151.06,141.5v3.81H131V141.5Z" transform="translate(-36.84 -0.25)"/></svg>