<svg id="Calque_1" data-name="Calque 1" xmlns="http://www.w3.org/2000/svg" viewBox="0 0 182 256"><defs><style>.cls-1{fill:#f5f5f5;}.cls-2{fill:#e1e1e1;}.cls-3{fill:#ffc40a;}</style></defs><polygon class="cls-1" points="131.57 0 0 0 0 256 182 256 182 50.43 131.57 0"/><path class="cls-2" d="M168.42.25" transform="translate(-36.84 -0.25)"/><polygon class="cls-2" points="182 50.43 131.57 50.43 131.57 0 182 50.43"/><path class="cls-3" d="M66.22,126.17a4.41,4.41,0,0,0,2.65-1,3,3,0,0,0,.92-2.26c0-.87-.1-2.45-.29-4.76-.22-2.16-.33-3.88-.33-5.18a5.29,5.29,0,0,1,1.5-4,5.43,5.43,0,0,1,3.94-1.44H77v3.57H75.44a2.41,2.41,0,0,0-1.71.52,2.21,2.21,0,0,0-.56,1.67c0,.58,0,1.35.11,2.31s.12,1.64.14,2q.33,3.32.33,5.4a5,5,0,0,1-.92,3.06A4.49,4.49,0,0,1,70,127.68v.07a4.58,4.58,0,0,1,2.83,1.62,5,5,0,0,1,.92,3.06q0,2.08-.33,5.4c0,.41-.07,1.09-.14,2s-.11,1.73-.11,2.31a2.2,2.2,0,0,0,.56,1.67,2.41,2.41,0,0,0,1.71.52H77V148H74.61a5.43,5.43,0,0,1-3.94-1.44,5.29,5.29,0,0,1-1.5-4c0-1.29.11-3,.33-5.18.19-2.31.29-3.89.29-4.75a3,3,0,0,0-.92-2.27,4.41,4.41,0,0,0-2.65-1.05Z" transform="translate(-36.84 -0.25)"/><path class="cls-3" d="M96.61,116.16v18a7,7,0,0,1-2,5.29,8.33,8.33,0,0,1-10.69,0,7,7,0,0,1-2-5.29H86a4.07,4.07,0,0,0,.84,2.62,2.94,2.94,0,0,0,2.4,1,3,3,0,0,0,2.41-1,4,4,0,0,0,.83-2.61v-18Z" transform="translate(-36.84 -0.25)"/><path class="cls-3" d="M107,140.55a7.41,7.41,0,0,1-3.16-2.5,6.35,6.35,0,0,1-1.16-3.78h4.4a3.93,3.93,0,0,0,1.27,2.66,4.53,4.53,0,0,0,3.19,1,4.93,4.93,0,0,0,3.31-1A3.35,3.35,0,0,0,116,134.3a2.9,2.9,0,0,0-.74-2.05,4.9,4.9,0,0,0-1.83-1.22,28.52,28.52,0,0,0-3-.94,28.76,28.76,0,0,1-4-1.31,6.68,6.68,0,0,1-2.61-2.07,6,6,0,0,1-1.08-3.75,6.58,6.58,0,0,1,1.08-3.78,6.88,6.88,0,0,1,3-2.48,10.88,10.88,0,0,1,4.5-.86,9.4,9.4,0,0,1,6,1.81,6.76,6.76,0,0,1,2.57,5h-4.53a3.33,3.33,0,0,0-1.3-2.34,4.78,4.78,0,0,0-3.13-1,4.43,4.43,0,0,0-2.88.9,3.12,3.12,0,0,0-1.12,2.59,2.66,2.66,0,0,0,.7,1.89,5.06,5.06,0,0,0,1.79,1.17,27.78,27.78,0,0,0,3,.94,31.57,31.57,0,0,1,4,1.36,6.77,6.77,0,0,1,2.66,2.11,6.06,6.06,0,0,1,1.1,3.8,6.79,6.79,0,0,1-1,3.6,7.44,7.44,0,0,1-3,2.72,9.91,9.91,0,0,1-4.63,1A11.21,11.21,0,0,1,107,140.55Z" transform="translate(-36.84 -0.25)"/><path class="cls-3" d="M130,139.79a12.12,12.12,0,0,1-4.64-4.57,13.57,13.57,0,0,1,0-13.19,12.24,12.24,0,0,1,4.64-4.56,13.56,13.56,0,0,1,12.89,0,12.07,12.07,0,0,1,4.63,4.56,13.71,13.71,0,0,1,0,13.19,12,12,0,0,1-4.63,4.57,13.48,13.48,0,0,1-12.89,0Zm10.86-3.06a7.81,7.81,0,0,0,3-3.24,11.31,11.31,0,0,0,0-9.73,7.79,7.79,0,0,0-3-3.21,9.4,9.4,0,0,0-8.86,0,7.79,7.79,0,0,0-3,3.21,11.31,11.31,0,0,0,0,9.73,7.81,7.81,0,0,0,3,3.24,9.18,9.18,0,0,0,8.86,0Z" transform="translate(-36.84 -0.25)"/><path class="cls-3" d="M173.79,141.18h-4.11L157.34,122.5v18.68h-4.11V116.12h4.11l12.34,18.65V116.12h4.11Z" transform="translate(-36.84 -0.25)"/><path class="cls-3" d="M187.88,130.31a3,3,0,0,0-.92,2.27c0,.86.1,2.44.29,4.75.22,2.16.33,3.89.33,5.18a5.29,5.29,0,0,1-1.5,4,5.43,5.43,0,0,1-3.94,1.44h-2.41v-3.57h1.58a2.41,2.41,0,0,0,1.71-.52,2.2,2.2,0,0,0,.56-1.67c0-.58,0-1.35-.11-2.31s-.12-1.64-.14-2q-.33-3.32-.33-5.4a5,5,0,0,1,.92-3.06,4.58,4.58,0,0,1,2.83-1.62v-.07a4.49,4.49,0,0,1-2.83-1.62A5,5,0,0,1,183,123q0-2.09.33-5.4c0-.41.07-1.09.14-2s.11-1.73.11-2.31a2.21,2.21,0,0,0-.56-1.67,2.41,2.41,0,0,0-1.71-.52h-1.58v-3.57h2.41a5.43,5.43,0,0,1,3.94,1.44,5.29,5.29,0,0,1,1.5,4c0,1.3-.11,3-.33,5.18-.19,2.31-.29,3.89-.29,4.76a3,3,0,0,0,.92,2.26,4.41,4.41,0,0,0,2.65,1v3.09A4.41,4.41,0,0,0,187.88,130.31Z" transform="translate(-36.84 -0.25)"/></svg>